<svg width="16" height="16" viewBox="0 0 16 16" fill="none" xmlns="http://www.w3.org/2000/svg">
<path d="M13.2921 5.33335H14C14.7364 5.33335 15.3333 5.93031 15.3333 6.66669V9.33335C15.3333 10.0698 14.7364 10.6667 14 10.6667H13.2921C12.964 13.2976 10.7197 15.3334 8.00001 15.3334V14C10.2091 14 12 12.2092 12 10V6.00002C12 3.79088 10.2091 2.00002 8.00001 2.00002C5.79087 2.00002 4.00001 3.79088 4.00001 6.00002V10.6667H2.00001C1.26363 10.6667 0.666672 10.0698 0.666672 9.33335V6.66669C0.666672 5.93031 1.26363 5.33335 2.00001 5.33335H2.70793C3.036 2.70248 5.28026 0.666687 8.00001 0.666687C10.7197 0.666687 12.964 2.70248 13.2921 5.33335ZM2.00001 6.66669V9.33335H2.66667V6.66669H2.00001ZM13.3333 6.66669V9.33335H14V6.66669H13.3333ZM5.17297 10.5233L5.87973 9.39249C6.49441 9.77749 7.22121 10 8.00001 10C8.77881 10 9.50561 9.77749 10.1203 9.39249L10.8271 10.5233C10.0075 11.0366 9.03841 11.3334 8.00001 11.3334C6.96161 11.3334 5.99255 11.0366 5.17297 10.5233Z" fill="black"/>
</svg>
