<svg width="14" height="13" viewBox="0 0 14 13" fill="none" xmlns="http://www.w3.org/2000/svg">
<path d="M7.00065 1.01902C8.56665 -0.386666 10.9866 -0.34 12.495 1.17157C14.0035 2.68315 14.0553 5.09133 12.6524 6.662L6.99991 12.3233L1.34757 6.662C-0.0553215 5.09133 -0.00288153 2.67934 1.50489 1.17157C3.01436 -0.3379 5.43011 -0.388753 7.00065 1.01902ZM11.5513 2.1134C10.5519 1.11196 8.93838 1.07134 7.89131 2.01125L7.00125 2.81016L6.11071 2.01187C5.06063 1.07065 3.45002 1.11205 2.44769 2.11438C1.45453 3.10754 1.40467 4.6982 2.31993 5.7488L6.99991 10.4362L11.68 5.7488C12.5956 4.6978 12.546 3.11017 11.5513 2.1134Z" fill="black"/>
</svg>
