<svg width="14" height="14" viewBox="0 0 14 14" fill="none" xmlns="http://www.w3.org/2000/svg">
<path d="M11.0207 10.0778L13.8758 12.933L12.933 13.8758L10.0779 11.0206C9.05131 11.842 7.74937 12.3333 6.33337 12.3333C3.02137 12.3333 0.333374 9.64531 0.333374 6.33331C0.333374 3.02131 3.02137 0.333313 6.33337 0.333313C9.64537 0.333313 12.3334 3.02131 12.3334 6.33331C12.3334 7.74931 11.842 9.05125 11.0207 10.0778ZM9.68317 9.58318C10.4984 8.74305 11 7.59705 11 6.33331C11 3.75498 8.91171 1.66665 6.33337 1.66665C3.75504 1.66665 1.66671 3.75498 1.66671 6.33331C1.66671 8.91165 3.75504 11 6.33337 11C7.59711 11 8.74311 10.4983 9.58324 9.68311L9.68317 9.58318ZM7.11864 3.78414C6.65564 3.99319 6.33337 4.45895 6.33337 4.99998C6.33337 5.73638 6.93031 6.33331 7.66671 6.33331C8.20771 6.33331 8.67351 6.01105 8.88257 5.54806C8.95891 5.79631 9.00004 6.05998 9.00004 6.33331C9.00004 7.80605 7.80611 8.99998 6.33337 8.99998C4.86061 8.99998 3.66671 7.80605 3.66671 6.33331C3.66671 4.86055 4.86061 3.66665 6.33337 3.66665C6.60671 3.66665 6.87037 3.70776 7.11864 3.78414Z" fill="#0E0E0E"/>
</svg>
