<svg width="14" height="14" viewBox="0 0 14 14" fill="none" xmlns="http://www.w3.org/2000/svg">
<path d="M3.86076 12.8828L0.333313 13.6666L1.11719 10.1392C0.61694 9.20371 0.333313 8.13498 0.333313 6.99998C0.333313 3.31808 3.31808 0.333313 6.99998 0.333313C10.6818 0.333313 13.6666 3.31808 13.6666 6.99998C13.6666 10.6818 10.6818 13.6666 6.99998 13.6666C5.86498 13.6666 4.79625 13.383 3.86076 12.8828ZM4.05381 11.474L4.4895 11.707C5.25497 12.1163 6.11031 12.3333 6.99998 12.3333C9.94551 12.3333 12.3333 9.94551 12.3333 6.99998C12.3333 4.05446 9.94551 1.66665 6.99998 1.66665C4.05446 1.66665 1.66665 4.05446 1.66665 6.99998C1.66665 7.88965 1.88364 8.74498 2.29297 9.51045L2.52595 9.94611L2.08942 11.9105L4.05381 11.474Z" fill="#0E0E0E"/>
</svg>
