<svg width="8" height="10" viewBox="0 0 8 10" fill="none" xmlns="http://www.w3.org/2000/svg">
<path d="M7.61497 5.26621C6.92025 3.46083 4.4467 3.36348 5.04407 0.739486C5.08832 0.544788 4.88035 0.39434 4.7122 0.496114C3.10594 1.44305 1.95103 3.34136 2.92009 5.82818C2.99974 6.03173 2.76079 6.222 2.58822 6.08925C1.7873 5.48303 1.70323 4.61132 1.77403 3.9874C1.80058 3.7573 1.49968 3.64668 1.37136 3.83695C1.07046 4.29715 0.765137 5.04054 0.765137 6.16005C0.933285 8.63802 3.02629 9.39911 3.77853 9.49646C4.8538 9.63364 6.01756 9.43451 6.85388 8.669C7.77427 7.81498 8.11056 6.4521 7.61497 5.26621ZM3.50861 7.49196C4.1458 7.33709 4.47325 6.87689 4.56175 6.4698C4.70777 5.83703 4.13695 5.21754 4.52192 4.2175C4.66795 5.04496 5.96889 5.56268 5.96889 6.46537C6.00429 7.58488 4.79185 8.5451 3.50861 7.49196Z" fill="#D2375D"/>
</svg>
