<svg width="20" height="17" viewBox="0 0 20 17" fill="none" xmlns="http://www.w3.org/2000/svg">
<path d="M12.5 2C10.567 2 9 3.567 9 5.5C9 7.433 10.567 9 12.5 9C14.433 9 16 7.433 16 5.5C16 3.567 14.433 2 12.5 2ZM7 5.5C7 2.46243 9.4624 0 12.5 0C15.5376 0 18 2.46243 18 5.5C18 6.6575 17.6424 7.7315 17.0317 8.6175L19.7071 11.2929L18.2929 12.7071L15.6175 10.0317C14.7315 10.6424 13.6575 11 12.5 11C9.4624 11 7 8.5376 7 5.5ZM0 1L5 1V3L0 3L0 1ZM0 8L5 8V10H0L0 8ZM18 15V17L0 17L0 15L18 15Z" fill="#0E0E0E"/>
</svg>
