<svg width="14" height="14" viewBox="0 0 14 14" fill="none" xmlns="http://www.w3.org/2000/svg">
<path d="M0.333313 6.99987C0.333313 6.42353 0.406446 5.86427 0.543946 5.33087C1.27079 5.36855 1.9923 5.00677 2.38118 4.33321C2.76976 3.66017 2.72269 2.85514 2.32745 2.24467C3.12234 1.46353 4.11219 0.880145 5.21733 0.574219C5.54811 1.22257 6.22218 1.66655 6.99998 1.66655C7.77778 1.66655 8.45185 1.22257 8.78265 0.574219C9.88778 0.880145 10.8776 1.46353 11.6725 2.24467C11.2772 2.85514 11.2302 3.66017 11.6188 4.33321C12.0076 5.00677 12.7292 5.36855 13.456 5.33087C13.5935 5.86427 13.6666 6.42353 13.6666 6.99987C13.6666 7.5762 13.5935 8.13547 13.456 8.66887C12.7292 8.6312 12.0076 8.993 11.6188 9.66653C11.2302 10.3396 11.2772 11.1446 11.6725 11.7551C10.8776 12.5362 9.88778 13.1196 8.78265 13.4255C8.45185 12.7772 7.77778 12.3332 6.99998 12.3332C6.22218 12.3332 5.54811 12.7772 5.21733 13.4255C4.11219 13.1196 3.12234 12.5362 2.32745 11.7551C2.72269 11.1446 2.76976 10.3396 2.38118 9.66653C1.9923 8.993 1.27079 8.6312 0.543946 8.66887C0.406446 8.13547 0.333313 7.5762 0.333313 6.99987ZM3.53588 8.99987C3.95595 9.72747 4.07637 10.5639 3.9121 11.3491C4.18396 11.5425 4.47335 11.7101 4.77657 11.8494C5.37449 11.3141 6.15945 10.9999 6.99998 10.9999C7.84051 10.9999 8.62545 11.3141 9.22338 11.8494C9.52658 11.7101 9.81598 11.5425 10.0878 11.3491C9.92358 10.5639 10.044 9.72747 10.4641 8.99987C10.8841 8.27233 11.5483 7.74987 12.3103 7.49953C12.3256 7.33433 12.3333 7.16773 12.3333 6.99987C12.3333 6.83207 12.3256 6.6654 12.3103 6.50027C11.5483 6.24993 10.8841 5.72747 10.4641 4.99988C10.044 4.2723 9.92358 3.43585 10.0878 2.6507C9.81598 2.45725 9.52658 2.28965 9.22338 2.15035C8.62545 2.68563 7.84051 2.99988 6.99998 2.99988C6.15945 2.99988 5.37449 2.68563 4.77657 2.15035C4.47335 2.28965 4.18396 2.45725 3.9121 2.6507C4.07637 3.43585 3.95595 4.2723 3.53588 4.99988C3.11582 5.72747 2.45167 6.24993 1.68965 6.50027C1.67436 6.6654 1.66665 6.83207 1.66665 6.99987C1.66665 7.16773 1.67436 7.33433 1.68965 7.49953C2.45167 7.74987 3.11582 8.27233 3.53588 8.99987ZM6.99998 8.99987C5.89538 8.99987 4.99998 8.10447 4.99998 6.99987C4.99998 5.89533 5.89538 4.99988 6.99998 4.99988C8.10458 4.99988 8.99998 5.89533 8.99998 6.99987C8.99998 8.10447 8.10458 8.99987 6.99998 8.99987ZM6.99998 7.66653C7.36818 7.66653 7.66665 7.36807 7.66665 6.99987C7.66665 6.63167 7.36818 6.3332 6.99998 6.3332C6.63178 6.3332 6.33331 6.63167 6.33331 6.99987C6.33331 7.36807 6.63178 7.66653 6.99998 7.66653Z" fill="#0E0E0E"/>
</svg>
