<svg width="14" height="14" viewBox="0 0 14 14" fill="none" xmlns="http://www.w3.org/2000/svg">
<path d="M3.1138 11C3.38836 10.2232 4.12918 9.66668 5 9.66668C5.8708 9.66668 6.61166 10.2232 6.8862 11L13.6667 11V12.3333L6.8862 12.3333C6.61166 13.1101 5.8708 13.6667 5 13.6667C4.12918 13.6667 3.38836 13.1101 3.1138 12.3333H0.333328L0.333328 11H3.1138ZM7.1138 6.33334C7.38833 5.55655 8.1292 5.00001 9 5.00001C9.8708 5.00001 10.6117 5.55655 10.8862 6.33334L13.6667 6.33334L13.6667 7.66668L10.8862 7.66668C10.6117 8.44348 9.8708 9.00001 9 9.00001C8.1292 9.00001 7.38833 8.44348 7.1138 7.66668L0.333328 7.66668L0.333328 6.33334L7.1138 6.33334ZM3.1138 1.66668C3.38836 0.889884 4.12918 0.333344 5 0.333344C5.8708 0.333344 6.61166 0.889884 6.8862 1.66668L13.6667 1.66668V3.00001L6.8862 3.00001C6.61166 3.7768 5.8708 4.33334 5 4.33334C4.12918 4.33334 3.38836 3.7768 3.1138 3.00001L0.333328 3.00001L0.333328 1.66668L3.1138 1.66668ZM5 3.00001C5.36818 3.00001 5.66666 2.70153 5.66666 2.33334C5.66666 1.96516 5.36818 1.66668 5 1.66668C4.63181 1.66668 4.33333 1.96516 4.33333 2.33334C4.33333 2.70153 4.63181 3.00001 5 3.00001ZM9 7.66668C9.3682 7.66668 9.66666 7.36821 9.66666 7.00001C9.66666 6.63181 9.3682 6.33334 9 6.33334C8.63179 6.33334 8.33333 6.63181 8.33333 7.00001C8.33333 7.36821 8.63179 7.66668 9 7.66668ZM5 12.3333C5.36818 12.3333 5.66666 12.0349 5.66666 11.6667C5.66666 11.2985 5.36818 11 5 11C4.63181 11 4.33333 11.2985 4.33333 11.6667C4.33333 12.0349 4.63181 12.3333 5 12.3333Z" fill="#0E0E0E"/>
</svg>
