<svg width="12" height="13" viewBox="0 0 12 13" fill="none" xmlns="http://www.w3.org/2000/svg">
<path d="M12 12.3332C12 12.7014 11.7015 12.9999 11.3333 12.9999H0.666667C0.29848 12.9999 0 12.7014 0 12.3332V5.20917C0 5.00505 0.0935134 4.81218 0.253767 4.68576L5.58713 0.478521C5.8292 0.287514 6.1708 0.287514 6.41287 0.478521L11.7462 4.68576C11.9065 4.81218 12 5.00505 12 5.20917V12.3332ZM2.66667 6.99991C2.66667 8.84085 4.15905 10.3332 6 10.3332C7.84093 10.3332 9.33333 8.84085 9.33333 6.99991H8C8 8.10451 7.1046 8.99991 6 8.99991C4.8954 8.99991 4 8.10451 4 6.99991H2.66667Z" fill="white"/>
</svg>
